<svg width="28" height="28" viewBox="0 0 28 28" fill="none" xmlns="http://www.w3.org/2000/svg">
<path d="M2.97895 0.0393486C2.69728 0.0826836 2.12853 0.288515 1.81436 0.451015C1.38645 0.678514 0.676862 1.3881 0.449362 1.81601C0.357279 1.99476 0.221862 2.30893 0.151445 2.52018L0.0268619 2.89935V7.47642C0.0268619 12.4327 0.0214452 12.2972 0.324779 12.9797C0.720195 13.8572 1.6302 14.6697 2.4752 14.8918L2.7027 14.9514L2.71895 16.0781C2.7352 17.3293 2.7677 17.4431 3.10353 17.6543C3.3202 17.7897 3.6777 17.806 3.88895 17.6922C3.9702 17.6489 4.60936 17.0368 5.30811 16.3381L6.58103 15.0597H6.8302H7.08478L7.11186 13.7977C7.13353 12.7089 7.14978 12.4868 7.2527 12.1402C7.77811 10.3581 9.09978 9.03642 10.8873 8.49475C11.2881 8.37559 11.326 8.37559 15.1556 8.35392L19.0123 8.33767V5.69976C19.0123 2.80726 19.0014 2.6881 18.6819 2.02185C18.346 1.31768 17.7664 0.738098 17.0352 0.375183C16.2498 -0.0148163 16.5748 0.00143242 9.47895 0.0122662C5.97978 0.0122662 3.05478 0.0285168 2.97895 0.0393486Z" fill="black"/>
<path d="M11.3315 10.0772C10.1074 10.3967 9.1432 11.3772 8.82362 12.6121C8.72612 12.9967 8.7207 13.2459 8.7207 17.4438C8.7207 20.3309 8.74237 21.9776 8.78029 22.1888C8.80737 22.3621 8.9482 22.7413 9.08362 23.023C9.50612 23.895 10.2645 24.545 11.2395 24.8755L11.6186 25L16.3853 25.0163L21.152 25.0325L22.479 26.3488C23.8928 27.7571 23.9524 27.8005 24.3695 27.7084C24.559 27.6705 24.8299 27.4592 24.9328 27.2805C24.9761 27.2046 25.0086 26.7821 25.0249 26.0346L25.052 24.9025L25.2686 24.8375C25.6315 24.7292 26.1353 24.4475 26.482 24.1605C27.094 23.6513 27.5599 22.8117 27.679 22.0155C27.7115 21.7934 27.7332 19.9138 27.7332 17.3896C27.7332 12.6338 27.7386 12.7096 27.3595 11.9459C26.9965 11.2147 26.417 10.6351 25.7128 10.2992C24.9978 9.95799 25.3065 9.96882 18.1999 9.97424C12.0032 9.97424 11.7107 9.97965 11.3315 10.0772Z" fill="black"/>
</svg>
