<svg width="36" height="35" viewBox="0 0 36 35" fill="none" xmlns="http://www.w3.org/2000/svg">
<path d="M11.0285 20.3381L10.4407 21.1472L11.0285 20.3381L2.05655 13.8197H13.1464C13.7963 13.8197 14.3722 13.4012 14.573 12.7832L13.622 12.4742L14.573 12.7832L18 2.23607L21.427 12.7832C21.6278 13.4012 22.2037 13.8197 22.8536 13.8197H33.9434L24.9715 20.3381L25.5593 21.1472L24.9715 20.3381C24.4458 20.7201 24.2258 21.3972 24.4266 22.0152L27.8536 32.5623L18.8817 26.0438L18.2939 26.8528L18.8817 26.0438C18.356 25.6619 17.6441 25.6619 17.1183 26.0438L8.14641 32.5623L11.5734 22.0152C11.7742 21.3972 11.5542 20.7201 11.0285 20.3381Z" stroke="#808080" stroke-width="2"/>
</svg>
