<svg width="36" height="35" viewBox="0 0 36 35" fill="none" xmlns="http://www.w3.org/2000/svg">
<path d="M17.465 0.646466C17.6334 0.128229 18.3666 0.128229 18.535 0.646466L22.364 12.431C22.4393 12.6627 22.6553 12.8197 22.899 12.8197H35.2899C35.8348 12.8197 36.0614 13.5169 35.6206 13.8372L25.5961 21.1205C25.3989 21.2637 25.3164 21.5176 25.3917 21.7494L29.2207 33.5339C29.3891 34.0521 28.796 34.4831 28.3551 34.1628L18.3306 26.8795C18.1335 26.7363 17.8665 26.7363 17.6694 26.8795L7.64486 34.1628C7.20402 34.4831 6.61088 34.0521 6.77926 33.5339L10.6083 21.7494C10.6836 21.5176 10.6011 21.2637 10.4039 21.1205L0.379438 13.8372C-0.0614008 13.5169 0.165161 12.8197 0.710068 12.8197H13.101C13.3447 12.8197 13.5607 12.6627 13.636 12.431L17.465 0.646466Z" fill="#F0C726"/>
</svg>
